<svg width="22" height="21" viewBox="0 0 22 21" fill="none" xmlns="http://www.w3.org/2000/svg">
<g clip-path="url(#clip0_1_76)">
<path d="M20.9196 14.904C20.5122 15.4182 19.5151 15.7839 19.5151 15.7839L12.1006 18.4472V16.4829L17.5573 14.5395C18.1769 14.3182 18.272 14.0032 17.7682 13.8392C17.2658 13.6739 16.3559 13.722 15.7376 13.9433L12.1006 15.2242V13.1857L12.3102 13.1155C12.3102 13.1155 13.3607 12.7432 14.8381 12.5792C16.3155 12.4164 18.1249 12.6013 19.545 13.1389C21.1461 13.6465 21.3257 14.3911 20.9196 14.904ZM12.8061 11.5612V6.53668C12.8061 5.94701 12.6981 5.4042 12.1449 5.2506C11.7205 5.11393 11.4576 5.50834 11.4576 6.09671V18.6763L8.06536 17.5998V2.60165C9.50764 2.8698 11.6086 3.50243 12.7385 3.88382C15.6113 4.86921 16.585 6.09671 16.585 8.86281C16.585 11.5586 14.9214 12.5805 12.8061 11.5599V11.5612ZM1.84065 16.2799C0.197913 15.8139 -0.0754427 14.8506 0.673032 14.2961C1.36553 13.7832 2.54227 13.3979 2.54227 13.3979L7.40671 11.6667L7.40671 13.6387L3.90514 14.8923C3.28814 15.1136 3.19312 15.4273 3.69557 15.5926C4.19803 15.7566 5.10791 15.7097 5.72622 15.4884L7.4054 14.8779V16.643L7.07087 16.699C5.31906 16.9826 3.52465 16.8384 1.84065 16.2786V16.2799Z" fill="white"/>
</g>
<defs>
<clipPath id="clip0_1_76">
<rect width="20.8271" height="20.8271" fill="white" transform="translate(0.27729 -0.0018158)"/>
</clipPath>
</defs>
</svg>
