<svg width="22" height="21" viewBox="0 0 22 21" fill="none" xmlns="http://www.w3.org/2000/svg">
<g clip-path="url(#clip0_1_74)">
<path d="M10.3114 20.7819C8.66144 20.6118 7.0761 20.0494 5.68779 19.1417C4.51887 18.3802 4.25462 18.0665 4.25462 17.4417C4.25462 16.1856 5.63702 13.9844 8.00221 11.476C9.34425 10.0507 11.2161 8.38061 11.4179 8.42617C11.811 8.51469 14.9559 11.5802 16.1326 13.0225C17.994 15.3043 18.8505 17.1736 18.4158 18.0067C18.0851 18.6393 16.0337 19.8772 14.5276 20.3523C13.2858 20.7441 11.6548 20.9107 10.3114 20.7819ZM2.67567 16.1348C1.7033 14.6457 1.21256 13.18 0.975652 11.0582C0.89755 10.3566 0.926187 9.95696 1.15398 8.51989C1.43775 6.72746 2.45828 4.65386 3.68578 3.37819C4.20776 2.83539 4.25462 2.82237 4.89115 3.03585C5.66566 3.29619 6.49224 3.86633 7.77181 5.02484L8.51898 5.70042L8.11155 6.20157C6.21628 8.5277 4.21687 11.8249 3.46189 13.8647C3.05186 14.9737 2.88654 16.0866 3.06357 16.5501C3.18203 16.8625 3.07268 16.7453 2.67306 16.1348H2.67567ZM19.7292 16.3886C19.8255 15.92 19.7045 15.0609 19.4194 14.1927C18.8037 12.3143 16.7444 8.81928 14.853 6.44369L14.2582 5.69521L14.9012 5.10424C15.7421 4.33234 16.3266 3.87023 16.9579 3.47712C17.4538 3.16862 18.1645 2.89396 18.4691 2.89396C18.6579 2.89396 19.3205 3.58126 19.8555 4.33103C20.7067 5.54413 21.3015 6.91808 21.6036 8.3689C21.8028 9.31653 21.8197 11.3446 21.6349 12.2896C21.4614 13.136 21.1996 13.9619 20.8539 14.7537C20.6208 15.2653 20.0416 16.2585 19.7865 16.5813C19.6563 16.7479 19.6563 16.7466 19.7305 16.3886H19.7292ZM10.4845 2.5386C9.6124 2.09602 8.26645 1.6209 7.52188 1.49334C7.19494 1.44464 6.86424 1.42591 6.53389 1.43736C5.92079 1.46861 5.94813 1.43736 6.93221 0.971357C7.70364 0.600878 8.51893 0.329698 9.35857 0.164306C10.3999 -0.0556807 12.3603 -0.0569824 13.386 0.157797C14.4925 0.392103 15.7981 0.876334 16.5335 1.32932L16.7522 1.4634L16.2511 1.43736C15.254 1.3879 13.8039 1.78882 12.2444 2.54771C11.7745 2.77681 11.3645 2.95905 11.3345 2.95384C11.0467 2.82389 10.7628 2.68542 10.4832 2.5386H10.4845Z" fill="white"/>
</g>
<defs>
<clipPath id="clip0_1_74">
<rect width="20.8271" height="20.8271" fill="white" transform="translate(0.937149 -0.0018158)"/>
</clipPath>
</defs>
</svg>
